<svg width="13" height="11" viewBox="0 0 13 11" fill="none" xmlns="http://www.w3.org/2000/svg">
<path d="M8.66475 3.49115C8.72112 3.54842 8.78818 3.59387 8.86207 3.62489C8.93596 3.65591 9.01522 3.67188 9.09526 3.67188C9.17531 3.67188 9.25456 3.65591 9.32845 3.62489C9.40234 3.59387 9.4694 3.54842 9.52577 3.49115L11.9512 1.04726C12.0654 0.932214 12.1295 0.776175 12.1295 0.613472C12.1295 0.450769 12.0654 0.29473 11.9512 0.179682C11.837 0.0646335 11.6821 0 11.5207 0C11.3592 0 11.2043 0.0646335 11.0902 0.179682L9.09526 2.19589L8.31307 1.40163C8.25653 1.34466 8.18942 1.29947 8.11555 1.26864C8.04168 1.23781 7.96251 1.22194 7.88256 1.22194C7.72109 1.22194 7.56623 1.28658 7.45205 1.40163C7.39552 1.45859 7.35067 1.52622 7.32007 1.60065C7.28948 1.67508 7.27373 1.75485 7.27373 1.83542C7.27373 1.99812 7.33787 2.15416 7.45205 2.26921L8.66475 3.49115ZM11.5207 3.05736C11.3599 3.05736 11.2056 3.12173 11.0919 3.23631C10.9782 3.35089 10.9143 3.50629 10.9143 3.66833V9.16708C10.9143 9.32912 10.8504 9.48453 10.7367 9.59911C10.623 9.71369 10.4688 9.77806 10.308 9.77806H1.81905C1.65824 9.77806 1.50401 9.71369 1.3903 9.59911C1.27658 9.48453 1.2127 9.32912 1.2127 9.16708V3.30786L4.77804 6.90649C5.11836 7.24659 5.57813 7.43761 6.05744 7.43803C6.54881 7.43549 7.01938 7.23792 7.36716 6.88816L8.41009 5.83729C8.52426 5.72224 8.58841 5.5662 8.58841 5.40349C8.58841 5.24079 8.52426 5.08475 8.41009 4.9697C8.29591 4.85466 8.14105 4.79002 7.97958 4.79002C7.8181 4.79002 7.66325 4.85466 7.54907 4.9697L6.48795 6.03891C6.37461 6.15085 6.22222 6.21356 6.06351 6.21356C5.90479 6.21356 5.75241 6.15085 5.63906 6.03891L2.06766 2.44639H5.45716C5.61797 2.44639 5.7722 2.38202 5.88591 2.26744C5.99962 2.15286 6.06351 1.99746 6.06351 1.83542C6.06351 1.67338 5.99962 1.51797 5.88591 1.40339C5.7722 1.28881 5.61797 1.22444 5.45716 1.22444H1.81905C1.33661 1.22444 0.873927 1.41755 0.532788 1.76129C0.19165 2.10503 0 2.57124 0 3.05736V9.16708C0 9.6532 0.19165 10.1194 0.532788 10.4632C0.873927 10.8069 1.33661 11 1.81905 11H10.308C10.7904 11 11.2531 10.8069 11.5942 10.4632C11.9354 10.1194 12.127 9.6532 12.127 9.16708V3.66833C12.127 3.50629 12.0631 3.35089 11.9494 3.23631C11.8357 3.12173 11.6815 3.05736 11.5207 3.05736Z" fill="#D3DCE6"/>
</svg>
