<svg width="17" height="13" viewBox="0 0 17 13" fill="none" xmlns="http://www.w3.org/2000/svg">
<path d="M1.10639 5.88874L1.02552 5.82992C0.851711 6.06891 0.859054 6.39465 1.04353 6.62615L1.04353 6.62615L1.04419 6.62697C2.066 7.88182 3.1364 8.87037 4.2337 9.57343L2.59453 11.2126C2.3404 11.4667 2.34111 11.8795 2.59402 12.136L2.59453 12.1365C2.72101 12.263 2.88774 12.3284 3.05495 12.3284C3.22215 12.3284 3.38888 12.263 3.51537 12.1365L14.4395 1.21542L14.4396 1.21541C14.6937 0.961278 14.693 0.548524 14.4401 0.291998L14.3688 0.362205L14.4401 0.291998C14.1852 0.0334895 13.772 0.0387228 13.5161 0.290993L13.5156 0.291494L11.6005 2.20664C9.15056 1.11935 6.54202 1.40532 4.062 3.02487C2.20327 4.23723 1.07476 5.76098 1.02502 5.83062L1.10639 5.88874ZM1.10639 5.88874C1.15242 5.8243 2.27246 4.31148 4.11668 3.10859L4.30611 9.50103C3.21318 8.80418 2.14416 7.81944 1.12174 6.56383C0.965237 6.36744 0.9591 6.09127 1.10639 5.88874ZM8.92137 4.88576L7.19077 6.61637C7.15158 6.48878 7.13184 6.35401 7.13184 6.21401C7.13184 5.84452 7.27485 5.49564 7.53829 5.23219C7.91205 4.85843 8.44868 4.74344 8.92137 4.88576ZM4.77581 4.11601C6.74692 2.83154 8.69871 2.53325 10.6005 3.2097L9.90476 3.90545C8.87033 3.28453 7.50623 3.4195 6.61745 4.30828C6.1076 4.81813 5.83022 5.49415 5.83022 6.21094C5.83022 6.70595 5.96465 7.18119 6.21452 7.59569L5.18683 8.62338C4.24358 8.06566 3.31128 7.25589 2.40131 6.20475C2.82588 5.71486 3.65678 4.84556 4.77581 4.11601Z" fill="#D3DCE6" stroke="#D3DCE6" stroke-width="0.2"/>
<path d="M15.9947 5.80182L15.9941 5.80109C15.2323 4.86345 14.4415 4.07231 13.6367 3.44399L13.6363 3.44366C13.3504 3.22292 12.9416 3.27373 12.7175 3.55571L12.717 3.55633C12.4955 3.83962 12.547 4.24868 12.8287 4.47257L12.8293 4.47308C13.4363 4.94747 14.0445 5.53423 14.6369 6.22001C14.2637 6.64985 13.5866 7.36416 12.6848 8.02029C10.858 9.34853 9.02389 9.82194 7.23192 9.44255C6.87979 9.36641 6.53222 9.59473 6.45948 9.94617C6.38353 10.2983 6.61191 10.6457 6.96335 10.7183C7.44587 10.821 7.93145 10.8708 8.41996 10.8708C9.1547 10.8708 9.89507 10.7556 10.6315 10.5257C11.5977 10.2243 12.5556 9.72792 13.4807 9.05343L13.4808 9.05332C14.9975 7.94291 15.9196 6.7215 16.0061 6.60691C16.0084 6.60375 16.0102 6.60143 16.0113 6.59998L16.0113 6.6L16.0127 6.59805C16.1866 6.35907 16.1792 6.03332 15.9947 5.80182Z" fill="#D3DCE6" stroke="#D3DCE6" stroke-width="0.2"/>
</svg>
