<svg width="960" height="482" viewBox="0 0 960 482" fill="none" xmlns="http://www.w3.org/2000/svg">
<path d="M-127.009 274.969C-120.523 269.394 -113.934 265.574 -106.774 263.302L-99.6135 260.979C-85.8638 256.539 -71.699 251.996 -57.1709 248.124C-34.5486 242.136 -10.3181 238.212 14.7947 236.457C36.1716 234.96 55.3176 234.805 73.374 235.889C98.0198 237.386 118.515 239.916 137.92 243.685C177.354 251.428 216.994 264.18 259.177 282.713C275.885 290.044 292.696 297.736 308.936 305.119C325.591 312.708 342.766 320.555 359.732 327.989C430.868 359.119 497.645 376.155 564.007 380.027C591.662 381.627 616.308 381.421 639.449 379.459C665.081 377.239 690.349 372.748 714.528 366.191C755.258 355.04 788.673 339.914 816.691 319.883C842.945 301.092 862.143 280.39 875.271 256.591C884.506 239.864 890.629 221.537 893.482 201.92C879.473 201.662 864.323 200.577 848.757 197.531C820.427 192.008 796.923 182.818 776.843 169.447C755.362 155.147 740.471 138.008 731.235 116.996C723.452 99.1853 721.584 81.2197 725.787 63.5122C731.806 38.2158 748.15 19.0112 773.159 8.06664C793.291 -0.812918 815.602 -2.36168 839.417 3.42036C875.374 12.145 903.704 33.8277 923.524 67.9004C935.925 89.2216 943.916 113.847 947.807 143.17C960.623 141.415 972.764 139.763 984.646 137.233C1011.47 131.606 1038.71 125.411 1065.07 119.371C1078.4 116.325 1091.79 113.279 1105.18 110.285C1152.44 99.7532 1198.83 90.0993 1246.57 87.931C1275 86.692 1300.73 88.1375 1325.33 92.5256C1399.32 105.638 1458.88 142.602 1502.31 202.384C1505.42 206.721 1508.43 211.109 1511.44 215.549L1515.18 221.073C1515.7 221.847 1516.16 222.725 1516.63 223.551C1516.99 223.964 1517.36 224.377 1517.67 224.841L1518.76 226.39C1520 228.145 1521.2 229.901 1522.34 231.656C1536.71 254.732 1552.64 273.266 1571.06 288.34C1611.32 321.277 1659.16 337.901 1717.33 339.088C1729.47 339.346 1741.87 338.469 1755 337.539L1763.66 336.92C1783.79 335.578 1805.12 332.274 1832.77 326.233C1852.39 321.948 1871.95 317.457 1891.51 312.966C1915.17 307.545 1939.61 301.969 1963.84 296.755C1982.83 292.677 2002.02 289.476 2020.6 286.379L2035.08 283.952C2037 283.643 2038.86 283.333 2040.78 283.075C2040.99 279.564 2041.35 275.95 2041.87 272.182C2048.31 227.526 2067.3 187.929 2098.32 154.476C2122.5 128.354 2152.49 106.568 2187.57 89.6862C2242.77 63.0992 2303.53 48.7474 2373.37 45.8564C2380.32 45.5466 2387.28 45.4434 2394.28 45.4434C2420.28 45.4434 2446.95 47.4051 2475.22 51.4319C2507.91 56.0782 2540.76 63.5122 2572.82 73.5275C2619.16 87.9826 2662.53 107.342 2695.17 122.572C2729.15 138.421 2767.65 156.386 2806.62 169.344C2853.16 184.832 2900.43 192.317 2946.61 191.853C2967.72 191.595 2988.63 189.633 3008.77 185.967C3032.37 181.683 3059.98 175.849 3086.08 164.749C3088.83 163.562 3091.21 162.994 3092.93 162.581C3104.65 159.277 3117.05 164.491 3122.86 175.126C3128.67 185.761 3126.24 198.977 3117 206.927C3110.51 212.503 3103.92 216.323 3096.76 218.595L3089.5 221.021C3075.75 225.461 3061.59 230.004 3047.06 233.876C3024.44 239.864 3000.21 243.788 2975.09 245.543C2953.72 247.04 2934.57 247.195 2916.51 246.111C2891.87 244.614 2871.37 242.084 2851.97 238.316C2812.53 230.572 2772.89 217.82 2730.71 199.287C2714 191.956 2697.19 184.264 2680.95 176.881C2664.3 169.292 2647.12 161.445 2630.15 154.011C2559.02 122.881 2492.24 105.845 2425.88 101.973C2398.23 100.373 2373.58 100.579 2350.44 102.541C2324.81 104.761 2299.54 109.252 2275.36 115.809C2234.63 126.96 2201.21 142.086 2173.2 162.117C2146.94 180.908 2127.74 201.61 2114.62 225.409C2105.38 242.136 2099.26 260.463 2096.4 280.08C2110.41 280.339 2125.56 281.423 2141.13 284.469C2169.46 289.992 2192.96 299.182 2213.04 312.553C2234.53 326.853 2249.42 343.992 2258.65 365.004C2266.43 382.815 2268.3 400.78 2264.1 418.488C2258.08 443.784 2241.74 462.989 2216.73 473.933C2196.6 482.813 2174.29 484.362 2150.47 478.58C2114.51 469.855 2086.18 448.172 2066.36 414.1C2053.96 392.778 2045.97 368.153 2042.08 338.83C2029.26 340.585 2017.12 342.237 2005.24 344.767C1978.42 350.394 1951.18 356.589 1924.82 362.629C1911.48 365.675 1898.1 368.721 1884.71 371.715C1837.44 382.247 1791.06 391.901 1743.32 394.069C1714.89 395.308 1689.15 393.863 1664.56 389.474C1590.57 376.362 1531 339.398 1487.58 279.616C1484.46 275.279 1481.45 270.891 1478.44 266.451L1474.71 260.927C1474.19 260.153 1473.72 259.275 1473.26 258.449C1472.89 258.036 1472.53 257.623 1472.22 257.159L1471.13 255.61C1469.88 253.855 1468.69 252.099 1467.55 250.344C1453.18 227.268 1437.25 208.734 1418.83 193.66C1378.56 160.723 1330.72 144.099 1272.56 142.912C1260.42 142.654 1248.02 143.531 1234.89 144.461L1226.23 145.08C1206.09 146.422 1184.77 149.726 1157.11 155.767C1137.5 160.052 1117.94 164.543 1098.38 169.034C1074.72 174.455 1050.28 180.031 1026.05 185.245C1007.06 189.323 987.863 192.524 969.288 195.621L954.812 198.048C952.892 198.358 951.024 198.667 949.104 198.925C948.896 202.436 948.533 206.05 948.014 209.818C941.581 254.474 922.591 294.071 891.563 327.524C867.384 353.646 837.394 375.432 802.319 392.314C747.112 418.901 686.354 433.253 616.516 436.144C609.563 436.453 602.61 436.557 595.605 436.557C569.611 436.557 542.941 434.595 514.664 430.568C481.976 425.922 449.132 418.488 417.066 408.472C370.732 394.017 327.355 374.658 294.719 359.428C260.734 343.579 222.235 325.614 183.268 312.656C136.727 297.168 89.4587 289.683 43.2803 290.147C22.1626 290.405 1.25269 292.367 -18.8792 296.033C-42.4873 300.318 -70.0903 306.151 -96.189 317.251C-98.939 318.438 -101.326 319.006 -103.038 319.419C-114.764 322.723 -127.165 317.509 -132.976 306.874C-138.632 296.136 -136.193 282.92 -127.009 274.969ZM879.162 102.128C869.044 81.5811 854.775 67.6939 835.474 59.7952C827.847 56.646 820.479 55.0973 813.319 55.0973C808.338 55.0973 803.408 55.8717 798.531 57.3688C788.102 60.6212 782.187 66.4549 779.385 76.3153C778.348 79.8774 777.517 85.7627 782.031 95.778C786.857 106.464 795.055 115.602 807.196 123.759C820.79 132.897 836.927 139.247 857.889 143.583C869.096 145.906 880.719 146.784 892.6 147.042C889.85 129.541 885.44 114.828 879.162 102.128ZM2110.67 379.924C2120.79 400.471 2135.06 414.358 2154.36 422.256C2161.99 425.406 2169.36 426.954 2176.52 426.954C2181.5 426.954 2186.43 426.18 2191.3 424.683C2201.73 421.43 2207.65 415.597 2210.45 405.736C2211.49 402.174 2212.32 396.289 2207.8 386.274C2202.98 375.587 2194.78 366.449 2182.64 358.293C2169.05 349.155 2152.91 342.805 2131.95 338.469C2120.74 336.145 2109.12 335.268 2097.23 335.01C2100.04 352.459 2104.45 367.172 2110.67 379.924Z" fill="url(#paint0_linear)"/>
<defs>
<linearGradient id="paint0_linear" x1="3125.82" y1="241.016" x2="-135.961" y2="241.016" gradientUnits="userSpaceOnUse">
<stop offset="0.0885417" stop-color="#D5F900"/>
<stop offset="0.234375" stop-color="#D1F802"/>
<stop offset="0.421875" stop-color="#C7F609"/>
<stop offset="0.6262" stop-color="#B5F313"/>
<stop offset="0.7099" stop-color="#9BEF23"/>
<stop offset="0.7916" stop-color="#7AE936"/>
<stop offset="0.8719" stop-color="#52E24E"/>
<stop offset="0.9495" stop-color="#23D96A"/>
<stop offset="1" stop-color="#00D37F"/>
</linearGradient>
</defs>
</svg>
