<svg width="147" height="30" viewBox="0 0 147 30" fill="none" xmlns="http://www.w3.org/2000/svg">
<path d="M29.9396 3.09231C29.9317 1.37995 28.4361 -0.0078817 26.7272 3.3691e-05L3.35798 0.00267215C1.63326 0.0105875 -0.473257 2.54615 1.52004 4.52236L4.67719 7.65421C5.00633 7.98138 5.53823 7.97874 5.86474 7.64894L11.0678 2.37993C11.9763 1.4591 13.4719 1.45119 14.3882 2.36146C15.3072 3.27173 15.3151 4.77037 14.4067 5.68856L12.5029 7.61464C12.4845 7.63047 12.466 7.64894 12.4476 7.66741L3.60286 16.625C2.78132 17.4561 2.63123 18.7806 3.32638 19.7199C4.20059 20.9072 5.89634 20.9916 6.89167 19.9864L14.2066 12.5802C15.1729 11.7069 16.7081 11.7808 17.577 12.815C18.3696 13.757 18.2537 15.1686 17.39 16.0419L15.2835 18.1738L15.2967 18.187L10.2121 23.3372C9.30364 24.2581 9.31153 25.7541 10.2279 26.6643C11.1442 27.5746 12.6398 27.5667 13.5483 26.6485L18.6355 21.5009L18.6382 21.5035L24.3916 15.6804C25.2131 14.8493 26.5323 14.6857 27.4776 15.3717C28.6705 16.2345 28.7732 17.9337 27.7778 18.9416L22.5668 24.2185C22.2403 24.5483 22.2429 25.0813 22.5721 25.4084L25.8319 28.6432C27.6356 30.4321 29.966 28.2131 29.9554 26.4849L29.9396 3.09231Z" fill="#0050DC"/>
<path d="M49.3889 29.2978C46.582 29.2978 44.2701 28.3348 42.4506 26.4087C40.6311 24.4826 39.7227 22.0473 39.7227 19.1054C39.7227 16.1899 40.6048 13.7599 42.3742 11.8206C44.1411 9.88135 46.403 8.9104 49.1572 8.9104C51.9905 8.9104 54.2445 9.82858 55.9218 11.665C57.5991 13.5013 58.4365 16.0738 58.4365 19.3798L58.397 19.7703H43.388C43.4407 21.6463 44.0621 23.1555 45.2602 24.3005C46.4556 25.4456 47.8854 26.0182 49.5496 26.0182C51.8351 26.0182 53.6283 24.8731 54.9291 22.5803L58.1257 24.1422C57.2673 25.757 56.0798 27.0208 54.5578 27.9311C53.0359 28.844 51.3138 29.2978 49.3889 29.2978ZM43.6592 16.7994H54.6131C54.5078 15.4723 53.9706 14.372 52.9964 13.4987C52.0221 12.6254 50.7161 12.19 49.0782 12.19C47.7274 12.19 46.5636 12.6069 45.5893 13.4406C44.615 14.2744 43.9726 15.3931 43.6592 16.7994Z" fill="#0050DC"/>
<path d="M65.2914 28.6751H61.7051V9.53572H65.1361V12.19H65.2914C65.8365 11.2534 66.6738 10.4724 67.8061 9.84705C68.9357 9.22174 70.0601 8.9104 71.1792 8.9104C72.5826 8.9104 73.8176 9.23757 74.8814 9.88663C75.9452 10.5383 76.7272 11.4354 77.2196 12.5831C78.8048 10.1346 81.0008 8.9104 83.8078 8.9104C86.017 8.9104 87.718 9.58849 88.9134 10.942C90.1089 12.2955 90.7066 14.2243 90.7066 16.7229V28.6751H87.1203V17.269C87.1203 15.4723 86.7938 14.1768 86.146 13.3826C85.4956 12.5884 84.4055 12.19 82.8704 12.19C81.4932 12.19 80.3373 12.7757 79.3999 13.9472C78.4651 15.1187 77.9964 16.4986 77.9964 18.087V28.6725H74.41V17.269C74.41 15.4723 74.0835 14.1768 73.4358 13.3826C72.7854 12.5884 71.6953 12.19 70.1601 12.19C68.783 12.19 67.627 12.7757 66.6896 13.9472C65.7549 15.1187 65.2862 16.4986 65.2862 18.087V28.6751H65.2914Z" fill="#0050DC"/>
<path d="M99.5584 2.9342C99.5584 3.63867 99.3108 4.2376 98.8184 4.73099C98.3234 5.22702 97.7257 5.4724 97.0253 5.4724C96.3222 5.4724 95.7245 5.22438 95.2321 4.73099C94.7371 4.2376 94.4922 3.63867 94.4922 2.9342C94.4922 2.23237 94.7397 1.63344 95.2321 1.1374C95.7245 0.644012 96.3222 0.395996 97.0253 0.395996C97.7257 0.395996 98.3234 0.644012 98.8184 1.1374C99.3108 1.6308 99.5584 2.22973 99.5584 2.9342ZM98.8184 9.53563V28.675H95.2321V9.53563H98.8184Z" fill="#0050DC"/>
<path d="M123.339 28.9865C121.78 28.9865 120.487 28.5063 119.46 27.5407C118.434 26.5776 117.907 25.2373 117.881 23.517V12.8154H108.994V22.4643C108.994 23.5856 109.223 24.3903 109.676 24.8864C110.131 25.3824 110.668 25.6278 111.292 25.6278C111.89 25.6278 112.462 25.5117 113.009 25.2769L114.139 28.48C113.204 28.8177 112.111 28.9865 110.863 28.9865C109.304 28.9865 108.012 28.5063 106.985 27.5407C105.958 26.5776 105.431 25.2373 105.405 23.517V12.8154H102.053V9.53581H105.405V3.67578H108.991V9.53581H117.878V3.67578H121.464V9.53581H126.143V12.8181H121.467V22.3482C121.467 23.6252 121.714 24.4906 122.207 24.9471C122.699 25.4035 123.26 25.6304 123.882 25.6304C124.166 25.6304 124.448 25.5988 124.719 25.5328C124.993 25.4695 125.246 25.3824 125.48 25.2795L126.609 28.4826C125.677 28.8177 124.585 28.9865 123.339 28.9865Z" fill="#0050DC"/>
<path d="M137.955 29.2978C135.148 29.2978 132.837 28.3348 131.017 26.4087C129.198 24.4826 128.289 22.0473 128.289 19.1054C128.289 16.1899 129.174 13.7599 130.941 11.8206C132.707 9.88135 134.969 8.9104 137.724 8.9104C140.557 8.9104 142.811 9.82858 144.486 11.665C146.163 13.5013 147 16.0738 147 19.3798L146.961 19.7703H131.952C132.004 21.6463 132.628 23.1555 133.824 24.3005C135.019 25.4456 136.449 26.0182 138.111 26.0182C140.396 26.0182 142.192 24.8731 143.49 22.5803L146.687 24.1422C145.828 25.757 144.641 27.0208 143.119 27.9311C141.6 28.844 139.88 29.2978 137.955 29.2978ZM132.226 16.7994H143.18C143.074 15.4723 142.537 14.372 141.56 13.4987C140.586 12.6254 139.28 12.19 137.642 12.19C136.291 12.19 135.127 12.6069 134.153 13.4406C133.181 14.2744 132.539 15.3931 132.226 16.7994Z" fill="#0050DC"/>
</svg>
