<svg width="13" height="11" viewBox="0 0 13 11" fill="none" xmlns="http://www.w3.org/2000/svg">
<path d="M11.4422 6.07203C11.3094 6.07203 11.1705 6.03339 11.0377 6.00579C10.7689 5.95084 10.5046 5.87891 10.2467 5.79051C9.96661 5.69735 9.65871 5.70218 9.38228 5.80409C9.10584 5.906 8.88039 6.09777 8.74932 6.34251L8.61649 6.59643C8.0301 6.29239 7.48839 5.92141 7.00437 5.49243C6.53514 5.04993 6.12936 4.55467 5.7968 4.01858L6.07454 3.90266C6.34224 3.78283 6.552 3.57672 6.66347 3.32399C6.77494 3.07126 6.78023 2.78977 6.67833 2.53369C6.58244 2.2958 6.50378 2.05239 6.44285 1.80505C6.41266 1.68361 6.38851 1.55665 6.3704 1.43521C6.29708 1.04639 6.07431 0.694277 5.74223 0.442286C5.41014 0.190296 4.99056 0.0549843 4.55903 0.0607202H2.74163C2.48638 0.0604146 2.23394 0.109433 2.00086 0.204563C1.76778 0.299693 1.55932 0.438786 1.38915 0.612723C1.21545 0.791381 1.08612 1.0023 1.01003 1.23099C0.933948 1.45967 0.912917 1.70071 0.948384 1.93753C1.2766 4.23504 2.42477 6.36937 4.21488 8.00956C6.00894 9.64613 8.34349 10.6958 10.8565 10.9959C10.9349 11.0014 11.0136 11.0014 11.092 10.9959C11.5373 10.9965 11.9671 10.8471 12.2996 10.5764C12.4898 10.4208 12.642 10.2302 12.746 10.0171C12.8501 9.80404 12.9037 9.57325 12.9034 9.33989V7.68388C12.9001 7.30246 12.7529 6.93377 12.4867 6.64009C12.2205 6.34642 11.8516 6.14576 11.4422 6.07203ZM11.7381 9.38405C11.7379 9.46107 11.72 9.53721 11.6857 9.60756C11.6514 9.67791 11.6014 9.74092 11.5388 9.79253C11.4726 9.84765 11.3939 9.88863 11.3083 9.91249C11.2226 9.93636 11.1323 9.94252 11.0437 9.93053C8.79054 9.6615 6.69659 8.72274 5.08433 7.25884C3.47069 5.78359 2.43493 3.86257 2.13785 1.79401C2.12473 1.71305 2.13147 1.63044 2.15757 1.55215C2.18368 1.47386 2.2285 1.40187 2.28879 1.34137C2.34592 1.28349 2.41582 1.23733 2.49387 1.20594C2.57192 1.17454 2.65636 1.15861 2.74163 1.15921H4.553C4.69257 1.15609 4.82901 1.19729 4.9391 1.27579C5.04918 1.35429 5.12611 1.46525 5.15678 1.58977C5.15678 1.73881 5.21112 1.89337 5.24735 2.04241C5.31714 2.33158 5.40996 2.6157 5.52509 2.89249L4.67979 3.25682C4.5345 3.31779 4.42159 3.42896 4.36582 3.56594C4.30543 3.70033 4.30543 3.85107 4.36582 3.98546C5.23479 5.68715 6.73101 7.05504 8.59234 7.84948C8.73933 7.90469 8.90422 7.90469 9.05121 7.84948C9.20104 7.7985 9.32264 7.69527 9.38934 7.56244L9.76972 6.78963C10.0812 6.89348 10.3999 6.9783 10.7237 7.04355C10.8807 7.07667 11.0498 7.10428 11.2128 7.12636C11.349 7.1544 11.4703 7.22473 11.5562 7.32537C11.6421 7.42602 11.6871 7.55076 11.6837 7.67836L11.7381 9.38405ZM8.17572 0H7.75307C7.59294 0.012444 7.44477 0.0825356 7.34116 0.194855C7.23755 0.307175 7.18699 0.452523 7.20061 0.598923C7.21422 0.745323 7.29088 0.880784 7.41374 0.975505C7.5366 1.07023 7.69558 1.11645 7.85571 1.10401H8.17572C9.13653 1.10401 10.058 1.45295 10.7374 2.07407C11.4168 2.6952 11.7984 3.53762 11.7984 4.41602V4.70858C11.7851 4.85421 11.8354 4.99874 11.9384 5.1105C12.0414 5.22225 12.1886 5.29211 12.3479 5.30475H12.3962C12.5473 5.30531 12.6932 5.25402 12.805 5.16101C12.9168 5.06801 12.9864 4.94005 13 4.80242V4.41602C13 3.24578 12.4919 2.12338 11.5874 1.29537C10.6828 0.467367 9.45575 0.00146281 8.17572 0ZM9.3833 4.41602C9.3833 4.56242 9.44691 4.70283 9.56014 4.80635C9.67337 4.90987 9.82695 4.96802 9.98709 4.96802C10.1472 4.96802 10.3008 4.90987 10.414 4.80635C10.5273 4.70283 10.5909 4.56242 10.5909 4.41602C10.5909 3.83042 10.3364 3.2688 9.88349 2.85472C9.43056 2.44064 8.81626 2.20801 8.17572 2.20801C8.01559 2.20801 7.86201 2.26617 7.74878 2.36969C7.63555 2.47321 7.57193 2.61361 7.57193 2.76001C7.57193 2.90641 7.63555 3.04682 7.74878 3.15034C7.86201 3.25386 8.01559 3.31202 8.17572 3.31202C8.49599 3.31202 8.80314 3.42833 9.02961 3.63537C9.25607 3.84241 9.3833 4.12322 9.3833 4.41602Z" fill="#818B9B"/>
</svg>
