<svg width="11" height="10" viewBox="0 0 11 10" fill="none" xmlns="http://www.w3.org/2000/svg">
<path d="M6.9307 5.35466C7.42863 4.96921 7.79208 4.44065 7.97048 3.8425C8.14887 3.24436 8.13335 2.60638 7.92606 2.01732C7.71877 1.42826 7.33003 0.917415 6.81392 0.555855C6.29781 0.194295 5.67999 0 5.04642 0C4.41286 0 3.79504 0.194295 3.27893 0.555855C2.76282 0.917415 2.37408 1.42826 2.16679 2.01732C1.9595 2.60638 1.94398 3.24436 2.12237 3.8425C2.30077 4.44065 2.66421 4.96921 3.16215 5.35466C2.30893 5.69099 1.56447 6.24882 1.00813 6.96869C0.451784 7.68856 0.10442 8.54348 0.00306352 9.4423C-0.00427318 9.50793 0.00159903 9.57433 0.0203447 9.63772C0.0390904 9.70111 0.0703425 9.76025 0.112317 9.81175C0.197088 9.91578 0.320386 9.98241 0.455087 9.99698C0.589788 10.0116 0.724858 9.9729 0.830584 9.88949C0.936309 9.80609 1.00403 9.68477 1.01885 9.55224C1.13037 8.5754 1.60378 7.67323 2.34862 7.0181C3.09346 6.36297 4.05751 6.0008 5.05658 6.0008C6.05566 6.0008 7.01971 6.36297 7.76455 7.0181C8.50939 7.67323 8.98279 8.5754 9.09432 9.55224C9.10813 9.67503 9.16768 9.78843 9.26147 9.87057C9.35526 9.9527 9.47665 9.99773 9.60221 9.99698H9.65808C9.79121 9.98191 9.9129 9.91568 9.99662 9.81272C10.0803 9.70975 10.1193 9.57841 10.105 9.4473C10.0032 8.54593 9.65395 7.68881 9.09475 6.96783C8.53555 6.24686 7.78747 5.68921 6.9307 5.35466ZM5.04642 4.99987C4.64462 4.99987 4.25184 4.88264 3.91775 4.663C3.58366 4.44336 3.32327 4.13119 3.1695 3.76594C3.01574 3.4007 2.97551 2.9988 3.05389 2.61106C3.13228 2.22332 3.32577 1.86716 3.60989 1.58762C3.89401 1.30808 4.256 1.1177 4.65009 1.04058C5.04417 0.963452 5.45265 1.00304 5.82387 1.15432C6.19509 1.30561 6.51238 1.56181 6.73561 1.89052C6.95884 2.21923 7.07799 2.60568 7.07799 3.00102C7.07799 3.53115 6.86395 4.03956 6.48296 4.41442C6.10197 4.78927 5.58523 4.99987 5.04642 4.99987Z" fill="#818B9B"/>
</svg>
